<svg xmlns="http://www.w3.org/2000/svg" viewBox="0 0 64 64" width="48" height="48">
  <defs>
    <linearGradient id="g" x1="0" y1="0" x2="1" y2="1">
      <stop offset="0%" stop-color="#0d8a4f"/>
      <stop offset="100%" stop-color="#0a5a36"/>
    </linearGradient>
  </defs>
  <!-- Escudo redondeado -->
  <path d="M32 2 L58 12 L58 32 C58 48 46 58 32 62 C18 58 6 48 6 32 L6 12 Z"
        fill="url(#g)" stroke="#c8a648" stroke-width="2"/>
  <!-- Libro abierto -->
  <g transform="translate(14,22)">
    <rect x="0" y="0" width="36" height="22" rx="2" fill="#fff" opacity="0.95"/>
    <line x1="18" y1="2" x2="18" y2="20" stroke="#0a5a36" stroke-width="1.5"/>
    <line x1="4" y1="6"  x2="14" y2="6"  stroke="#0a5a36" stroke-width="1"/>
    <line x1="4" y1="10" x2="14" y2="10" stroke="#0a5a36" stroke-width="1"/>
    <line x1="4" y1="14" x2="12" y2="14" stroke="#0a5a36" stroke-width="1"/>
    <line x1="22" y1="6"  x2="32" y2="6"  stroke="#0a5a36" stroke-width="1"/>
    <line x1="22" y1="10" x2="32" y2="10" stroke="#0a5a36" stroke-width="1"/>
    <line x1="22" y1="14" x2="30" y2="14" stroke="#0a5a36" stroke-width="1"/>
  </g>
  <!-- Iniciales UBI -->
  <text x="32" y="17" text-anchor="middle" font-family="Arial,sans-serif"
        font-size="9" font-weight="700" fill="#c8a648" letter-spacing="1">UBI</text>
</svg>
